<svg viewBox="0 0 120 120" fill="none" xmlns="http://www.w3.org/2000/svg">
  <!-- Click rays -->
  <path d="M60 8 L60 22" stroke="#e53935" stroke-width="5" stroke-linecap="round"/>
  <path d="M42 16 L48 28" stroke="#e53935" stroke-width="5" stroke-linecap="round"/>
  <path d="M78 16 L72 28" stroke="#e53935" stroke-width="5" stroke-linecap="round"/>
  <path d="M30 28 L40 36" stroke="#e53935" stroke-width="5" stroke-linecap="round"/>
  <path d="M90 28 L80 36" stroke="#e53935" stroke-width="5" stroke-linecap="round"/>
  <!-- Hand -->
  <path d="M60 32 C56 32 53 35 53 40 L53 65 C53 65 48 63 45 65 C42 67 42 72 45 75 L45 75 C45 75 40 75 38 80 C36 85 40 90 45 90 L75 90 C85 90 90 82 90 72 L90 55 C90 52 88 50 85 50 C82 50 80 52 80 55 L80 58 L80 50 C80 47 78 45 75 45 C72 45 70 47 70 50 L70 55 L70 45 C70 42 68 40 65 40 C62 40 60 42 60 45 L60 55 L60 40 C60 35 58 32 60 32Z"
        stroke="#1a1a1a" stroke-width="3" stroke-linecap="round" stroke-linejoin="round" fill="white"/>
  <!-- Finger details -->
  <path d="M60 55 L60 70" stroke="#1a1a1a" stroke-width="2" stroke-linecap="round"/>
  <path d="M70 55 L70 70" stroke="#1a1a1a" stroke-width="2" stroke-linecap="round"/>
  <path d="M80 58 L80 70" stroke="#1a1a1a" stroke-width="2" stroke-linecap="round"/>
</svg>
